<?xml version="1.0" encoding="UTF-8" standalone="no"?>
<svg width="911px" height="233px" viewBox="0 0 911 233" version="1.1" xmlns="http://www.w3.org/2000/svg" xmlns:xlink="http://www.w3.org/1999/xlink">
    <!-- Generator: Sketch 3.8.3 (29802) - http://www.bohemiancoding.com/sketch -->
    <title>Slice 1</title>
    <desc>Created with Sketch.</desc>
    <defs></defs>
    <g id="Page-1" stroke="none" stroke-width="1" fill="none" fill-rule="evenodd">
        <path d="M210.667969,1.9375 C142.534326,8.13146755 75.0386871,22.3256285 20.6679687,66.9375 C-34.9170961,112.545758 44.2770932,169.343736 89.6679687,171.9375 C126.607708,174.048342 163.667969,171.9375 200.667969,171.9375" id="Path-1" stroke="#FFFFFF" stroke-width="3"></path>
        <path d="M303.667969,90.9375 C285.562212,92.3302505 265.073575,98.7300248 253.667969,113.9375 C235.1155,138.674125 248.234296,169.418686 277.667969,174.9375 C288.825253,177.029491 304.84081,162.18595 307.667969,151.9375 C313.487393,130.842085 305.369315,100.651821 286.667969,86.9375 C283.71115,84.7691666 285.47267,94.4711324 286.667969,97.9375 C292.218326,114.033537 299.504653,129.491601 306.667969,144.9375 C310.182415,152.515524 314.130023,159.924311 318.667969,166.9375 C321.496587,171.309002 324.836099,175.41218 328.667969,178.9375 C333.231005,183.135493 338.31223,186.813319 343.667969,189.9375 C346.399477,191.53088 349.523066,192.606458 352.667969,192.9375 C362.287235,193.950054 372.001302,193.604167 381.667969,193.9375" id="Path-2" stroke="#FFFFFF" stroke-width="3"></path>
        <path d="M372.625,112.9375 C390.569945,103.965028 417.113049,112.109821 420.625,134.9375 C421.989293,143.805404 421.303119,170.76797 408.625,173.9375 C404.435542,174.984864 404.480721,170.265868 404.625,165.9375 C404.87157,158.540407 404.806994,150.781229 407.625,143.9375 C414.539243,127.145766 447.849834,107.529222 464.625,101.9375 C470.147681,100.096606 475.866435,98.7906208 481.625,97.9375 C484.922345,97.4490045 488.291667,97.9375 491.625,97.9375" id="Path-3" stroke="#FFFFFF" stroke-width="3"></path>
        <path d="M519.667969,28.8632812 C532.874998,34.3014698 563.653044,39.5498676 564.667969,60.8632812 C566.207695,93.1975242 543.406976,123.673388 532.667969,151.863281 C526.561768,167.892058 531.518365,192.133985 552.667969,192.863281 C560.004513,193.116266 567.334635,192.196615 574.667969,191.863281" id="Path-4" stroke="#FFFFFF" stroke-width="3"></path>
        <path d="M670.597656,102.863281 C649.868138,98.2567216 630.377714,109.116461 622.597656,129.863281 C620.17062,136.335378 619.515342,149.184578 625.597656,153.863281 C632.733112,159.352093 637.915881,159.995687 646.597656,158.863281 C665.50601,156.396974 677.289861,147.054813 674.597656,126.863281 C673.90833,121.693334 672.814459,90.0520795 659.597656,98.8632812" id="Path-5" stroke="#FFFFFF" stroke-width="3"></path>
        <path d="M789.640625,116.863281 C771.914822,93.2288778 716.470224,109.181677 723.640625,137.863281 C723.86929,138.77794 724.752742,139.54618 725.640625,139.863281 C729.523526,141.250032 733.551731,142.333239 737.640625,142.863281 C739.820734,143.145888 798.929022,143.372671 803.640625,159.863281 C805.216937,165.380372 798.104393,168.844526 794.640625,169.863281 C781.058716,173.85796 749.60579,183.723942 745.640625,167.863281" id="Path-6" stroke="#FFFFFF" stroke-width="3"></path>
        <path d="M870.640625,39.8632812 C861.499371,79.4753828 872.812517,123.238416 877.640625,161.863281" id="Path-7" stroke="#FFFFFF" stroke-width="3"></path>
        <path d="M889.640625,203.863281 C864.366362,203.863281 878.93315,242.199226 899.640625,227.863281 C926.127843,209.525976 890.698953,169.982746 880.640625,206.863281 C879.938979,209.435985 880.640625,212.196615 880.640625,214.863281" id="Path-8" stroke="#FFFFFF" stroke-width="3"></path>
    </g>
</svg>