<?xml version="1.0" encoding="UTF-8" standalone="no"?>
<svg width="521px" height="314px" viewBox="0 0 521 314" version="1.1" xmlns="http://www.w3.org/2000/svg" xmlns:xlink="http://www.w3.org/1999/xlink">
    <!-- Generator: Sketch 3.8.3 (29802) - http://www.bohemiancoding.com/sketch -->
    <title>Slice 1</title>
    <desc>Created with Sketch.</desc>
    <defs></defs>
    <g id="Page-1" stroke="none" stroke-width="1" fill="none" fill-rule="evenodd">
        <path d="M115.257812,9.625 C95.0163929,2.87786013 103.172112,4.86223026 66.2578125,2.625 C46.6208745,1.43488254 24.5615485,0.731959975 10.2578125,16.625 C-11.9781483,41.3316231 17.425592,107.238334 44.2578125,117.625 C71.0140587,127.982257 73.2788525,122.832758 105.257812,118.625" id="Path-1" stroke="#FFFFFF" stroke-width="4"></path>
        <path d="M180.210938,64.625 C168.997607,69.2422538 134.654219,80.3723828 143.210938,99.625 C144.863455,103.343164 146.751335,107.483341 150.210938,109.625 C169.728624,121.707377 186.096589,105.489074 180.210938,85.625 C178.469971,79.7492371 170.796898,62.9922414 173.210938,68.625 C178.62484,81.2574401 183.302066,94.2163691 189.210938,106.625 C190.021628,108.32745 191.435172,109.990798 193.210938,110.625 C196.365734,111.751713 199.877604,111.291667 203.210938,111.625" id="Path-2" stroke="#FFFFFF" stroke-width="4"></path>
        <path d="M227.210938,68.625 C244.322703,72.2918069 249.05183,72.2844648 248.210938,91.625 C247.929444,98.0993446 246.262801,104.204619 241.210938,108.625 C235.701865,113.445439 223.250247,93.0581041 233.210938,87.625 C238.862597,84.5422764 244.977424,82.2336487 251.210938,80.625 C255.419201,79.5389964 259.929074,80.3696719 264.210938,79.625 C267.639575,79.0287152 270.877604,77.625 274.210938,76.625" id="Path-3" stroke="#FFFFFF" stroke-width="4"></path>
        <path d="M290.347656,40.625 C296.86334,30.851475 310.816848,46.1320676 311.347656,54.625 C312.284351,69.6121124 301.473107,76.7329675 297.347656,89.625 C292.588081,104.498672 303.376292,124.967879 317.347656,129.625" id="Path-4" stroke="#FFFFFF" stroke-width="4"></path>
        <path d="M378.347656,83.7109375 C364.519801,80.2539738 357.123616,84.5407901 345.347656,94.7109375 C339.11974,100.089592 336.537618,113.300932 347.347656,114.710937 C359.12188,116.246706 367.410126,117.809174 377.347656,110.710937 C391.098781,100.888706 388.542159,88.5095632 373.347656,84.7109375" id="Path-5" stroke="#FFFFFF" stroke-width="4"></path>
        <path d="M447.347656,65.7109375 C432.905294,69.1611472 426.572103,68.7436988 415.417969,76.7109375 C414.061746,77.6796678 411.172287,79.6036644 412.417969,80.7109375 C419.604345,87.0988273 446.42057,93.7144056 452.417969,101.710938 C452.817969,102.244271 452.844758,103.19879 452.417969,103.710938 C451.051575,105.35061 449.506134,107.26921 447.417969,107.710938 C431.921426,110.989052 416.084635,112.377604 400.417969,114.710938" id="Path-6" stroke="#FFFFFF" stroke-width="4"></path>
        <path d="M485.460938,26.6679688 L492.460938,92.6679687" id="Path-7" stroke="#FFFFFF" stroke-width="4"></path>
        <path d="M510.460938,117.667969 C503.794271,120.001302 496.828581,121.6115 490.460938,124.667969 C484.178893,127.68335 483.553139,135.481799 491.460938,136.667969 C502.661223,138.348012 525.842205,130.23987 515.460938,114.667969" id="Path-8" stroke="#FFFFFF" stroke-width="4"></path>
        <path d="M287.390625,213.757812 C285.723958,213.757812 283.951174,213.172607 282.390625,213.757812 C275.828894,216.218462 269.598472,219.506083 263.390625,222.757812 C247.706031,230.973552 289.019368,254.356612 292.390625,230.757812 C293.052273,226.126278 291.723958,221.424479 291.390625,216.757812 L287.390625,213.757812 Z" id="Path-9" stroke="#FFFFFF" stroke-width="4"></path>
        <path d="M281.390625,238.757812 C277.354757,268.354177 278.390625,253.356612 278.390625,283.757812" id="Path-10" stroke="#FFFFFF" stroke-width="4"></path>
        <path d="M279.320312,279.785156 C258.701488,301.616852 267.017971,290.99965 253.320312,310.785156" id="Path-11" stroke="#FFFFFF" stroke-width="4"></path>
        <path d="M278.320312,282.738281 C283.088068,305.38512 279.425873,295.949402 287.320312,311.738281" id="Path-12" stroke="#FFFFFF" stroke-width="4"></path>
        <path d="M300.25,263.855469 L257.25,250.855469" id="Path-13" stroke="#FFFFFF" stroke-width="4"></path>
        <path d="M271.292969,227.898438 C273.476829,238.817738 286.754093,238.976188 291.292969,229.898438" id="Path-14" stroke="#FFFFFF" stroke-width="4"></path>
        <path d="M262.292969,220.945312 C258.878477,214.116329 258.271853,214.177587 259.292969,202.945312 C259.299042,202.878507 264.505205,208.274901 266.292969,208.945312 C267.229298,209.296436 268.845755,209.83974 269.292969,208.945312 C271.136878,205.257495 268.169863,196.945312 272.292969,196.945312 C276.626302,196.945312 275.109528,205.202271 277.292969,208.945312 C277.628883,209.521165 278.721307,209.28831 279.292969,208.945312 C280.505647,208.217706 281.424726,207.061625 282.292969,205.945312 C283.768698,204.047946 284.593296,201.644986 286.292969,199.945312 C286.764373,199.473908 288.215075,199.283212 288.292969,199.945312 C288.955069,205.573166 288.292969,211.278646 288.292969,216.945312" id="Path-15" stroke="#FFFFFF" stroke-width="4"></path>
    </g>
</svg>